<?xml version="1.0" encoding="UTF-8"?>
<svg width="28px" height="28px" viewBox="0 0 28 28" version="1.1" xmlns="http://www.w3.org/2000/svg" xmlns:xlink="http://www.w3.org/1999/xlink">
    <title>部门-01</title>
    <g id="页面-1" stroke="none" stroke-width="1" fill="none" fill-rule="evenodd">
        <g id="图层树" transform="translate(-90.000000, -638.000000)" fill-rule="nonzero">
            <g id="编组-8" transform="translate(30.000000, 69.000000)">
                <g transform="translate(31.000000, 569.000000)" id="部门-01">
                    <g transform="translate(29.000000, 0.000000)">
                        <rect id="矩形" fill="#000000" opacity="0" x="0" y="0" width="28" height="28"></rect>
                        <polygon id="路径" fill="#FFFFFF" points="23.7678812 8.4 23.7678812 0 2.79622132 0 2.79622132 8.4 0 8.4 0 28 6.99055331 28 6.99055331 8.4 4.19433198 8.4 4.19433198 1.4 12.582996 1.4 12.582996 8.4 9.78677463 8.4 9.78677463 28 16.7773279 28 16.7773279 8.4 13.9811066 8.4 13.9811066 1.4 22.3697706 1.4 22.3697706 8.4 19.5735493 8.4 19.5735493 28 26.5641026 28 26.5641026 8.4"></polygon>
                    </g>
                </g>
            </g>
        </g>
    </g>
</svg>