<?xml version="1.0" encoding="UTF-8"?>
<svg width="37px" height="37px" viewBox="0 0 37 37" version="1.1" xmlns="http://www.w3.org/2000/svg" xmlns:xlink="http://www.w3.org/1999/xlink">
    <title>社会团体_fill</title>
    <g id="页面-1" stroke="none" stroke-width="1" fill="none" fill-rule="evenodd">
        <g id="图层树" transform="translate(-85.000000, -953.000000)" fill-rule="nonzero">
            <g id="编组-8" transform="translate(30.000000, 69.000000)">
                <g id="编组-11" transform="translate(33.000000, 884.000000)">
                    <g id="社会团体_fill" transform="translate(22.000000, 0.000000)">
                        <rect id="矩形" fill="#000000" opacity="0" x="0" y="0" width="37" height="37"></rect>
                        <path d="M27.4086595,23.1176941 C26.8885032,21.5320039 25.1360666,21.7383199 25.1360666,21.7383199 L19.1791414,21.732311 L19.7057328,26.234743 C19.8427493,27.4078012 18.7890603,28.4762981 17.3522315,28.621806 C15.9154027,28.7673498 14.6391253,27.9346735 14.502145,26.7616154 L13.9130828,21.7267699 L10.9158573,21.7235676 C10.9158573,21.7235676 9.13196835,21.5172516 8.60259324,23.1052446 L5.82658239,29.0915762 C5.82658239,29.0915762 4.7890896,31.3897656 7.2148228,31.3939394 L28.7728226,31.3939394 C31.1554987,31.3897656 30.1365158,29.0948145 30.1365158,29.0948145 L27.4086595,23.1176941 Z M30.3484755,15.2771089 L27.1096817,12.5142226 L27.1096817,11.5931046 L29.4229819,8.36965931 C29.8621214,7.90956807 30.1291046,7.24632712 29.8857287,6.5274233 C29.559926,5.56579049 28.4974883,5.60630529 28.4974883,5.60630529 L14.6168918,6.9879823 L14.5683395,7.08469969 C14.4715535,7.06575183 14.3723283,7.06248345 14.2744953,7.07502076 C13.7685128,7.14631259 13.416347,7.61227248 13.4878257,8.11588411 L16.016267,25.8980672 C16.0573565,26.2284325 16.2743451,26.5110285 16.5838387,26.6372464 C16.8933323,26.7634642 17.2471703,26.7136631 17.5093637,26.5069828 C17.7715572,26.3003026 17.901306,25.9689048 17.8487444,25.6401542 L17.007919,19.725677 L28.4974883,18.5005901 C29.6497278,18.4153867 31.073578,18.2334659 31.2734991,17.5794721 C31.8162867,15.8067517 30.3484755,15.2771089 30.3484755,15.2771089 Z" id="形状" fill="#FFFFFF"></path>
                    </g>
                </g>
            </g>
        </g>
    </g>
</svg>