<?xml version="1.0" encoding="UTF-8"?>
<svg width="27px" height="27px" viewBox="0 0 27 27" version="1.1" xmlns="http://www.w3.org/2000/svg" xmlns:xlink="http://www.w3.org/1999/xlink">
    <title>城市建设2</title>
    <g id="页面-1" stroke="none" stroke-width="1" fill="none" fill-rule="evenodd">
        <g id="图层树" transform="translate(-90.000000, -742.000000)" fill="#FFFFFF" fill-rule="nonzero">
            <g id="编组-8" transform="translate(30.000000, 69.000000)">
                <g id="编组-9" transform="translate(18.000000, 673.000000)">
                    <g id="城市建设2" transform="translate(42.000000, 0.000000)">
                        <path d="M1.16604283,26.7647059 L9.63030218,26.7647059 L9.63030218,23.6321185 L13.3771496,23.6321185 L13.3771496,26.7647059 L14.5920917,26.7647059 L14.5920917,23.6321185 L18.2361679,23.6321185 L18.2361679,26.7647059 L25.039354,26.7647059 L25.039354,3.3685503 L1.16604283,3.3685503 L1.16604283,26.7647059 Z M4.04209765,4.59960384 L10.8236954,4.59960384 L10.8236954,8.5110506 L4.04209765,8.5110506 L4.04209765,4.59960384 Z M4.04209765,10.068743 L10.8236954,10.068743 L10.8236954,13.9801897 L4.04209765,13.9801897 L4.04209765,10.068743 Z M10.8236954,15.5373553 L10.8236954,19.448802 L4.04209765,19.448802 L4.04209765,15.5373553 L10.8236954,15.5373553 Z M8.70784765,23.3060329 C8.52823482,23.3060329 8.38240547,23.1209138 8.38240547,22.8921428 C8.38240547,22.6633718 8.60081403,22.2706096 8.870253,22.0140457 C9.13969198,21.7574555 9.53124083,21.5493118 9.74534753,21.5493118 L10.1325945,21.5493118 L9.03403969,22.6120538 L9.03403969,23.3059802 L8.70784765,23.3060329 Z M9.86453688,23.3060329 L9.86453688,22.4787533 L10.8049882,21.5526839 L11.6118449,21.5493382 L10.5161711,22.6120801 L10.5161711,23.3060065 L9.86453688,23.3060329 Z M11.9969607,23.3059802 L11.3460368,23.3059802 L11.3460368,22.4787006 L12.2901191,21.5492855 L13.0746771,21.5492855 L11.9969607,22.6120274 L11.9969607,23.3059802 Z M13.2119027,23.251817 L13.2119027,21.5493118 L13.8621161,21.5493118 L13.8621161,23.251817 L13.2119027,23.251817 Z M14.4857685,23.251817 L14.4857685,21.5493118 L15.1374027,21.5493118 L15.1374027,23.251817 L14.4857685,23.251817 Z M16.4299757,23.3060329 L16.4299757,22.6121065 L15.3688353,21.5493645 L16.1368567,21.5493645 L17.080939,22.4787796 L17.080939,23.3060592 L16.4299757,23.3060329 Z M17.9113967,23.3060329 L17.9113967,22.6121065 L16.8279181,21.5493645 L17.6189487,21.5493645 L18.5623205,22.4787796 L18.5623205,23.3060592 L17.9113967,23.3060329 Z M19.3928966,23.3060329 L19.3928966,22.6121065 L18.2778447,21.5493645 L18.6888112,21.5493645 C18.915863,21.5493645 19.3110033,21.7575082 19.5717991,22.0140984 C19.8318844,22.2706887 20.0431101,22.6634509 20.0431101,22.8921955 C20.0445309,23.1209665 19.8979911,23.3060856 19.7183783,23.3060856 L19.3928966,23.3060329 Z M15.3005185,19.4492762 L15.3005185,15.5378294 L22.0828661,15.5378294 L22.0828661,19.4492762 L15.3005185,19.4492762 Z M15.3005185,13.9801371 L15.3005185,10.0686903 L22.0828661,10.0686903 L22.0828661,13.9801371 L15.3005185,13.9801371 Z M15.3005185,8.5110506 L15.3005185,4.59960384 L22.0828661,4.59960384 L22.0828661,8.5110506 L15.3005185,8.5110506 Z M0,2.93405926 L26.2068966,2.93405926 L25.0135033,0 L1.13952123,0 L0,2.93405926 Z" id="形状"></path>
                    </g>
                </g>
            </g>
        </g>
    </g>
</svg>