<?xml version="1.0" encoding="UTF-8"?>
<svg width="31px" height="31px" viewBox="0 0 31 31" version="1.1" xmlns="http://www.w3.org/2000/svg" xmlns:xlink="http://www.w3.org/1999/xlink">
    <title>IOT物联0</title>
    <g id="页面-1" stroke="none" stroke-width="1" fill="none" fill-rule="evenodd">
        <g id="图层树" transform="translate(-88.000000, -532.000000)" fill-rule="nonzero">
            <g id="编组-8" transform="translate(30.000000, 69.000000)">
                <g id="编组-7" transform="translate(31.000000, 463.000000)">
                    <g id="IOT物联0" transform="translate(27.000000, 0.000000)">
                        <rect id="矩形" fill="#82A4CE" opacity="0" x="0" y="0" width="31" height="31"></rect>
                        <path d="M21.3125,9.6875 L21.3125,1.9375 L1.9375,1.9375 L1.9375,21.3125 L9.6875,21.3125 L9.6875,29.0625 L29.0625,29.0625 L29.0625,9.6875 L21.3125,9.6875 Z M5.8125,17.4375 L5.8125,5.8125 L17.4375,5.8125 L17.4375,9.6875 L9.6875,9.6875 L9.6875,17.4375 L5.8125,17.4375 Z M17.4375,13.5625 L17.4375,17.4375 L13.5625,17.4375 L13.5625,13.5625 L17.4375,13.5625 Z M25.1875,25.1875 L13.5625,25.1875 L13.5625,21.3125 L21.3125,21.3125 L21.3125,13.5625 L25.1875,13.5625 L25.1875,25.1875 Z" id="形状" fill="#FFFFFF"></path>
                    </g>
                </g>
            </g>
        </g>
    </g>
</svg>