<?xml version="1.0" encoding="UTF-8"?>
<svg width="34px" height="34px" viewBox="0 0 34 34" version="1.1" xmlns="http://www.w3.org/2000/svg" xmlns:xlink="http://www.w3.org/1999/xlink">
    <title>资源 6</title>
    <g id="页面-1" stroke="none" stroke-width="1" fill="none" fill-rule="evenodd">
        <g id="图层树" transform="translate(-87.000000, -201.000000)" fill-rule="nonzero">
            <g id="编组-8" transform="translate(30.000000, 69.000000)">
                <g id="编组-4" transform="translate(31.000000, 132.000000)">
                    <g id="资源-6" transform="translate(26.000000, 0.000000)">
                        <rect id="矩形" fill="#000000" opacity="0" x="0" y="0" width="34" height="34"></rect>
                        <path d="M25.3561356,22.2584049 C25.3548932,23.0210033 24.7371218,23.6389018 23.9746805,23.6401445 C23.2117239,23.6401445 22.5932253,23.0215186 22.5932253,22.2584049 L22.5932253,2.45569536 C22.5932253,1.69258166 23.2117239,1.07395578 23.9746805,1.07395578 C24.7376371,1.07395578 25.3561356,1.69258166 25.3561356,2.45569536 L25.3561356,22.2584049 Z M21.8788867,22.2584049 C21.8788867,23.020638 21.2617615,23.6388994 20.4996863,23.6401445 C19.7367297,23.6401445 19.1182312,23.0215186 19.1182312,22.2584049 L19.1182312,2.45569536 C19.1182312,1.69258166 19.7367297,1.07395578 20.4996863,1.07395578 C20.8658638,1.07395578 21.2170108,1.219603 21.4757256,1.47879452 C21.7344405,1.73798604 21.879484,2.08944294 21.8788867,2.45569536 L21.8788867,22.2584049 Z M18.4061473,22.2584049 C18.4061473,23.020638 17.789024,23.6388994 17.0269488,23.6401445 C16.2639922,23.6401445 15.6454937,23.0215186 15.6454937,22.2584049 L15.6454937,2.45569536 C15.6454937,1.69258166 16.2639922,1.07395578 17.0269488,1.07395578 C17.393115,1.07395578 17.7442486,1.21961104 18.0029554,1.47879454 C18.2616623,1.73797804 18.4067051,2.08942156 18.4061146,2.45566265 L18.4061473,22.2584049 Z M14.9334117,22.2584049 C14.9334117,23.020638 14.3162865,23.6388994 13.5542114,23.6401445 C12.7912547,23.6401445 12.1727562,23.0215186 12.1727562,22.2584049 L12.1727562,2.45569536 C12.1727562,1.69258166 12.7912547,1.07395578 13.5542114,1.07395578 C13.9203889,1.07395578 14.2715358,1.219603 14.5302507,1.47879452 C14.7889655,1.73798604 14.934009,2.08944294 14.9334117,2.45569536 L14.9334117,22.2584049 Z M11.4606724,24.4287567 C11.4606724,25.1904144 8.70001688,25.1904144 8.70001688,24.4287567 L8.70001688,2.45569536 C8.69941846,2.08905151 8.84477144,1.73725169 9.10397477,1.47799499 C9.3631781,1.21873829 9.71490549,1.07335539 10.0814739,1.07395393 C10.8444305,1.07395393 11.462929,1.69258166 11.462929,2.45569536 L11.4606724,24.4287567 Z M6,1.50532415 L6,23.2065517 C6,23.9951312 6.68958289,24.6422001 7.57238636,24.7141003 L7.57238636,0 C6.68958289,0.0719001798 6,0.718969086 6,1.50532415 Z M28,1.50532415 L28,23.2065517 C28,23.9951312 27.3103844,24.6422001 26.4275809,24.7141003 L26.4275809,0 C27.3103844,0.0719001798 28,0.718969086 28,1.50532415 Z" id="形状" fill="#FFFFFF"></path>
                        <path d="M31.6086504,7 C30.839833,7.00128249 30.2172663,7.62187581 30.2172674,8.38697263 L30.2172674,11.1676933 L26.6206307,11.1676933 L26.6206307,13.9051043 L30.2172006,13.9051043 L30.2172006,16.5489545 C30.2172006,17.3136835 30.8401515,17.9336188 31.6086003,17.9336188 C32.3770491,17.9336188 33,17.3136835 33,16.5489545 L33,8.38693941 C33,7.62185556 32.3774213,7.00128247 31.608617,7 L31.6086504,7 Z M2.39144289,7.06161001 C3.1598825,7.06161001 3.78282589,7.68153791 3.78282589,8.44625773 L3.78282589,11.2270116 L7.37942914,11.2270116 L7.37942914,13.9849482 L3.78285927,13.9849482 L3.78285927,16.6174064 C3.78285927,17.3821353 3.15990841,18.0020707 2.39145958,18.0020707 C1.62301075,18.0020707 1.00002957,17.3821353 1.00002957,16.6174064 L1.00002957,8.45539129 C0.997615206,8.08657993 1.14312698,7.73203839 1.40432735,7.4703878 C1.66552772,7.20873721 2.02082947,7.06161001 2.39144289,7.06161001 L2.39144289,7.06161001 Z M11.8653755,24.359643 C11.8616091,23.9055101 11.491923,23.5386346 11.0355725,23.536158 L8.8258467,23.536158 C8.60619274,23.5355504 8.39535784,23.6221126 8.24003529,23.776677 C8.08471275,23.9312415 7.99772097,24.1410523 7.99832266,24.359643 L7.99832266,25.4614493 C7.99770845,25.6804388 8.08500725,25.8906034 8.240823,26.0452408 C8.39663875,26.1998782 8.60806393,26.2861785 8.82811616,26.2849769 L11.037842,26.2849769 C11.2578967,26.2855787 11.4690836,26.1987025 11.6244732,26.043641 C11.7798628,25.8885795 11.8665829,25.6781778 11.8653755,25.4591908 L11.8653755,24.359643 Z M11.8699684,27.6262691 C11.8468519,27.1851976 11.4816909,26.8388283 11.0378753,26.8369934 L8.82814954,26.8369934 C8.60809479,26.8363821 8.3969079,26.9232584 8.24151831,27.0783199 C8.08612871,27.2333813 7.99940862,27.4437831 8.00061605,27.6627701 L8.56452435,32.028944 C8.56517638,32.1341587 8.5845783,32.2384242 8.62182837,32.3368944 L11.2693943,32.3368944 C11.3023996,32.249351 11.3194648,32.156655 11.3197898,32.0631533 L11.8699684,27.6262691 Z M12.4269889,33.5071194 L12.4269889,33.3611485 C12.4233105,33.0993659 12.2109538,32.8880372 11.9478979,32.8843766 L7.92957444,32.8843766 C7.66551372,32.8868728 7.45278624,33.1006126 7.45278624,33.3634069 L7.45278624,33.5230948 C7.45268191,33.7328929 7.59039988,33.9181043 7.79203811,33.979341 C7.83790088,33.9941292 7.88595178,34.0010695 7.93414674,33.9998666 L11.9455951,33.9998666 C12.07569,33.9999287 12.2002708,33.9475849 12.2909575,33.8547594 C12.3816443,33.7619338 12.4307141,33.6365315 12.4269889,33.5071194 L12.4269889,33.5071194 Z" id="形状" fill="#FFFFFF"></path>
                    </g>
                </g>
            </g>
        </g>
    </g>
</svg>