<?xml version="1.0" encoding="UTF-8"?>
<svg width="36px" height="36px" viewBox="0 0 36 36" version="1.1" xmlns="http://www.w3.org/2000/svg" xmlns:xlink="http://www.w3.org/1999/xlink">
    <title>专题</title>
    <g id="页面-1" stroke="none" stroke-width="1" fill="none" fill-rule="evenodd">
        <g id="图层树" transform="translate(-86.000000, -423.000000)" fill-rule="nonzero">
            <g id="编组-8" transform="translate(30.000000, 69.000000)">
                <g id="编组-6" transform="translate(31.000000, 354.000000)">
                    <g id="专题" transform="translate(25.000000, 0.000000)">
                        <rect id="矩形" fill="#000000" opacity="0" x="0" y="0" width="36" height="36"></rect>
                        <path d="M5.76472908,5 L15.7058845,5 C16.2156799,5 16.4705777,5.25490969 16.4705777,5.76472908 L16.4705777,15.7058845 C16.4705777,16.2156799 16.2156799,16.4705777 15.7058845,16.4705777 L5.76472908,16.4705777 C5.25490969,16.4705777 5,16.2156799 5,15.7058845 L5,5.76472908 C5,5.25490969 5.25490969,5 5.76472908,5 Z M5.76472908,19.5294223 L15.7058845,19.5294223 C16.2156799,19.5294223 16.4705777,19.7843201 16.4705777,20.2941155 L16.4705777,30.2352709 C16.4705777,30.7450903 16.2156799,31 15.7058845,31 L5.76472908,31 C5.25490969,31 5,30.7450903 5,30.2352709 L5,20.2941155 C5,19.7843201 5.25490969,19.5294223 5.76472908,19.5294223 Z M20.2941155,5 L30.2352709,5 C30.7450903,5 31,5.25490969 31,5.76472908 L31,15.7058845 C31,16.2156799 30.7450903,16.4705777 30.2352709,16.4705777 L20.2941155,16.4705777 C19.7843201,16.4705777 19.5294223,16.2156799 19.5294223,15.7058845 L19.5294223,5.76472908 C19.5294223,5.25490969 19.7843201,5 20.2941155,5 Z M30.2352709,19.5294223 L20.2941155,19.5294223 C19.8717871,19.5294223 19.5294223,19.8717871 19.5294223,20.2941155 C19.5294223,20.7164439 19.8717871,21.0588088 20.2941155,21.0588088 L30.2352709,21.0588088 C30.6575993,21.0588088 30.9999641,20.7164439 30.9999641,20.2941155 C30.9999641,19.8717871 30.6575993,19.5294223 30.2352709,19.5294223 Z M20.2941155,24.8823466 L26.4117689,24.8823466 C26.8341072,24.8823466 27.1764801,24.5399738 27.1764801,24.1176355 C27.1764801,23.6952972 26.8341072,23.3529243 26.4117689,23.3529243 L20.2941155,23.3529243 C19.8717772,23.3529243 19.5294044,23.6952972 19.5294044,24.1176355 C19.5294044,24.5399738 19.8717772,24.8823466 20.2941155,24.8823466 Z M30.2352709,27.1764622 L20.2941155,27.1764622 C19.8717772,27.1764622 19.5294044,27.518835 19.5294044,27.9411733 C19.5294044,28.3635116 19.8717772,28.7058845 20.2941155,28.7058845 L30.2352709,28.7058845 C30.6576092,28.7058845 30.9999821,28.3635116 30.9999821,27.9411733 C30.9999821,27.518835 30.6576092,27.1764622 30.2352709,27.1764622 L30.2352709,27.1764622 Z" id="形状" fill="#FFFFFF"></path>
                    </g>
                </g>
            </g>
        </g>
    </g>
</svg>