<?xml version="1.0" encoding="UTF-8"?>
<svg  viewBox="0 0 34 34" version="1.1" xmlns="http://www.w3.org/2000/svg" xmlns:xlink="http://www.w3.org/1999/xlink">
    <title>大数据,数据结构,关系,关系分析,共同联系人,组织</title>
    <g id="页面-1" stroke="none" stroke-width="1" fill="none" fill-rule="evenodd">
        <g id="首页" transform="translate(-87.000000, -87.000000)" fill-rule="nonzero">
            <g id="编组-8" transform="translate(30.000000, 69.000000)">
                <g id="编组-3" transform="translate(2.500000, 0.000000)">
                    <g id="大数据,数据结构,关系,关系分析,共同联系人,组织" transform="translate(54.500000, 18.000000)">
                        <rect id="矩形" fill="#000000" opacity="0" x="0" y="0"></rect>
                        <path d="M26.2762233,12.2567309 C26.1101919,12.4233962 26.0703444,12.6800607 26.1832457,12.8867257 C26.7643553,13.9500502 27.0930973,15.1700401 27.0930973,16.466696 C27.0930973,18.3400138 26.4057277,20.053333 25.2700735,21.3666554 C25.1206453,21.536654 25.1007216,21.7866519 25.2103022,21.9799837 L26.5119877,24.2432982 C26.6215684,24.4332966 26.8307679,24.5332958 27.0466086,24.5032961 C27.2458461,24.4766296 27.4484043,24.4632964 27.6542832,24.4632964 C29.9820422,24.4799629 31.9046848,26.4532799 31.8747992,28.7865939 C31.8449135,31.109908 29.9687597,32.9832258 27.6542832,33 C25.2999591,33.0165588 23.3739959,31.0965748 23.3739959,28.733261 C23.3739959,27.4632715 23.9285405,26.323281 24.8051858,25.5399541 L23.5765541,23.4066385 C23.4370878,23.1633072 23.1349108,23.0733079 22.8825432,23.1933069 C21.9095997,23.6666363 20.813793,23.9333008 19.6548944,23.9333008 C18.7682872,23.9333008 17.9182069,23.7766354 17.1312185,23.4933044 C16.8888128,23.4066385 16.619842,23.5033044 16.4903376,23.7266358 L15.6635017,25.1632906 C15.5605622,25.3432891 15.5705241,25.5666206 15.6900667,25.7366192 C16.1881606,26.44328 16.4770551,27.3066062 16.4704138,28.2399318 C16.4471695,30.5565792 14.5610537,32.4465636 12.2532185,32.4665634 C9.87565004,32.4865632 7.94304554,30.543246 7.96628992,28.1532658 C7.99285493,25.8299517 9.89225317,23.9366341 12.2100503,23.9333008 C12.6085255,23.9333008 12.9970387,23.9866337 13.3656283,24.0899662 C13.5980721,24.1566323 13.8471191,24.0532998 13.9699822,23.8433015 L14.6905582,22.5899786 C14.8134213,22.376647 14.7735738,22.103316 14.59426,21.9366507 C13.4785296,20.8966593 12.6848999,19.5166707 12.3694404,17.9633503 C12.319631,17.7133524 12.1037903,17.5333538 11.8481021,17.5333538 L8.79312587,17.5333538 C8.56400266,17.5333538 8.35812383,17.6833526 8.28839067,17.9033508 C7.73052546,19.60667 6.13330422,20.8333265 4.25050911,20.8333265 C1.89286445,20.8333265 -0.016495665,18.9066758 0,16.5366954 C0.0133899716,14.1833816 1.94599447,12.2767307 4.29035663,12.3000639 C6.09013607,12.3167304 7.62426542,13.4600543 8.22529877,15.060041 C8.30167318,15.266706 8.50091076,15.4000382 8.72007209,15.4000382 L11.8447814,15.4000382 C12.097149,15.4000382 12.3163104,15.223373 12.3661198,14.9767084 C12.7313886,13.1700567 13.7441797,11.6000697 15.1554458,10.5234119 C15.3679659,10.36008 15.4277372,10.0634158 15.2949121,9.83008436 L15.2218584,9.70341874 C15.1056364,9.5034204 14.8798339,9.40342123 14.6540313,9.4467542 C14.3618161,9.50675371 14.0563185,9.53675346 13.7441797,9.53008685 C11.4363444,9.49675379 9.5303049,7.52677012 9.56019054,5.21012266 C9.59007618,2.86680875 11.4994363,0.980157717 13.8437984,1 C16.1449925,1.02015739 18.0277876,2.9001418 18.0609938,5.20678935 C18.0742763,6.26011395 17.7090074,7.23010591 17.0880503,7.9800997 C16.9452634,8.15343159 16.922019,8.39676291 17.0349203,8.59009464 L17.2540816,8.97009149 C17.3736242,9.17675644 17.6127093,9.28008892 17.8418325,9.22008942 C18.4229421,9.07342397 19.0306167,8.99675793 19.6548944,8.99675793 C21.391582,8.99675793 22.9888032,9.59341966 24.2572825,10.5967447 C24.4698026,10.76341 24.7719796,10.7467434 24.9612553,10.556745 L25.7648468,9.75008502 C25.9209162,9.59341966 25.9640844,9.35675495 25.8744275,9.15675661 C25.6320218,8.62009439 25.4991967,8.02343267 25.4991967,7.3967712 C25.4991967,5.04012406 27.4019156,3.1301399 29.7495984,3.1301399 C32.0939605,3.1301399 34,5.04345737 34,7.3967712 C34,9.75341833 32.0972811,11.6634025 29.7495984,11.6634025 C29.0622287,11.6634025 28.4147066,11.5000705 27.8402382,11.2100729 C27.6343594,11.1067404 27.3853124,11.1434068 27.2192811,11.3067388 L26.2762233,12.2567309 L26.2762233,12.2567309 Z" id="路径" fill="#FFFFFF"></path>
                    </g>
                </g>
            </g>
        </g>
    </g>
</svg>