<?xml version="1.0" encoding="UTF-8"?>
<svg width="35px" height="35px" viewBox="0 0 35 35" version="1.1" xmlns="http://www.w3.org/2000/svg" xmlns:xlink="http://www.w3.org/1999/xlink">
    <title>规划</title>
    <g id="页面-1" stroke="none" stroke-width="1" fill="none" fill-rule="evenodd">
        <g id="图层树" transform="translate(-86.000000, -312.000000)" fill-rule="nonzero">
            <g id="编组-8" transform="translate(30.000000, 69.000000)">
                <g id="编组-5" transform="translate(31.000000, 243.000000)">
                    <g id="规划" transform="translate(25.000000, 0.000000)">
                        <rect id="矩形" fill="#000000" opacity="0" x="0" y="0" width="35" height="35"></rect>
                        <path d="M28.8235294,14.8005958 L24.8830037,12.7149518 C24.0938986,14.2879105 22.9190723,15.6238002 21.473769,16.5915768 L20.6103793,14.3245413 C23.3063863,12.2920383 24.4227848,8.71622843 23.3782655,5.45903761 C22.3337462,2.20184679 19.3645628,0 16.0167706,0 C12.6689785,0 9.69979513,2.20184679 8.65527583,5.45903761 C7.61075654,8.71622843 8.72715503,12.2920383 11.423162,14.3245413 L6.17647059,28.8336441 L10.3162555,30.4205724 L13.2163279,22.5312189 C14.134549,22.7220821 15.0687573,22.820793 16.0056896,22.8259503 C17.0189233,22.8136049 18.028071,22.6920296 19.0164392,22.4632355 L23.8867745,35 L28.004464,33.322393 L23.1562575,20.8536461 C25.5795236,19.4426833 27.5488627,17.3392769 28.8235294,14.8005617 L28.8235294,14.8005958 Z M16.0056896,4.68956319 C17.3487848,4.68956319 18.5596377,5.51806299 19.0736273,6.78876798 C19.587617,8.05947297 19.3035214,9.52212455 18.3538144,10.494688 C17.4041075,11.4672514 15.9758185,11.758196 14.7349591,11.2318543 C13.4940996,10.7055126 12.6850368,9.4655391 12.6850368,8.09013364 C12.6850368,6.21207713 14.1717513,4.68956319 16.0056896,4.68956319 L16.0056896,4.68956319 Z M16.0056896,18.291845 C15.6075595,18.3158164 15.208398,18.3158164 14.8102679,18.291845 L15.6293333,16.0248094 L16.4927231,16.0248094 L17.2454355,18.291845 C16.8325772,18.3178553 16.4185479,18.3178553 16.0056896,18.291845 L16.0056896,18.291845 Z" id="形状" fill="#FFFFFF"></path>
                    </g>
                </g>
            </g>
        </g>
    </g>
</svg>