<?xml version="1.0" encoding="UTF-8"?>
<svg width="37px" height="37px" viewBox="0 0 37 37" version="1.1" xmlns="http://www.w3.org/2000/svg" xmlns:xlink="http://www.w3.org/1999/xlink">
    <title>部门管理-1</title>
    <g id="页面-1" stroke="none" stroke-width="1" fill="none" fill-rule="evenodd">
        <g id="图层树" transform="translate(-85.000000, -846.000000)" fill-rule="nonzero">
            <g id="编组-8" transform="translate(30.000000, 69.000000)">
                <g id="编组-10" transform="translate(18.000000, 777.000000)">
                    <g id="部门管理-1" transform="translate(37.000000, 0.000000)">
                        <rect id="矩形" fill="#000000" opacity="0" x="0" y="0" width="37" height="37"></rect>
                        <path d="M32.471367,24.3350455 L30.7045874,24.3350455 L30.7045874,19.2786 C30.7045874,18.2452179 29.8725369,17.407822 28.8457512,17.407822 L19.7675493,17.407822 L19.7675493,12.6649545 L22.458436,12.6649545 C22.8372845,12.6649545 23.1453202,12.3549399 23.1453202,11.9736575 L23.1453202,5.79474527 C23.1453202,5.41346291 22.8372845,5.10344828 22.458436,5.10344828 L14.2476909,5.10344828 C13.8688424,5.10344828 13.5608067,5.41346291 13.5608067,5.79474527 L13.5608067,11.9736575 C13.5608067,12.3549399 13.8688424,12.6649545 14.2476909,12.6649545 L16.9385776,12.6649545 L16.9385776,17.4113854 L8.14008621,17.4113854 C7.11330049,17.4113854 6.28125,18.2487812 6.28125,19.2821633 L6.28125,24.3350455 L4.51447044,24.3350455 C4.13562192,24.3350455 3.82758621,24.6450601 3.82758621,25.0263425 L3.82758621,31.2052547 C3.82758621,31.5865371 4.13562192,31.8965517 4.51447044,31.8965517 L10.8840825,31.8965517 C11.262931,31.8965517 11.5709667,31.5865371 11.5709667,31.2052547 L11.5709667,25.0227791 C11.5709667,24.6414967 11.262931,24.3314821 10.8840825,24.3314821 L9.11730296,24.3314821 L9.11730296,20.9141944 C9.11730296,20.550729 9.40763547,20.2585313 9.76878079,20.2585313 L16.9421182,20.2585313 L16.9421182,24.3314821 L15.1753387,24.3314821 C14.7964901,24.3314821 14.4884544,24.6414967 14.4884544,25.0227791 L14.4884544,31.2016913 C14.4884544,31.5829737 14.7964901,31.8929883 15.1753387,31.8929883 L21.5449507,31.8929883 C21.9237993,31.8929883 22.231835,31.5829737 22.231835,31.2016913 L22.231835,25.0227791 C22.231835,24.6414967 21.9237993,24.3314821 21.5449507,24.3314821 L19.7781712,24.3314821 L19.7781712,20.2585313 L27.2312192,20.2585313 C27.5923645,20.2585313 27.882697,20.550729 27.882697,20.9141944 L27.882697,24.3314821 L26.1159175,24.3314821 C25.737069,24.3314821 25.4290333,24.6414967 25.4290333,25.0227791 L25.4290333,31.2016913 C25.4290333,31.5829737 25.737069,31.8929883 26.1159175,31.8929883 L32.4855296,31.8929883 C32.8643781,31.8929883 33.1724138,31.5829737 33.1724138,31.2016913 L33.1724138,25.0227791 C33.1582512,24.6414967 32.8502155,24.3350455 32.471367,24.3350455 Z" id="路径" fill="#FFFFFF"></path>
                    </g>
                </g>
            </g>
        </g>
    </g>
</svg>